<?xml version="1.0" standalone="no"?>
<!DOCTYPE svg PUBLIC "-//W3C//DTD SVG 20010904//EN"
 "http://www.w3.org/TR/2001/REC-SVG-20010904/DTD/svg10.dtd">
<svg version="1.0" xmlns="http://www.w3.org/2000/svg"
 width="1024.000000pt" height="1024.000000pt" viewBox="0 0 1024.000000 1024.000000"
 preserveAspectRatio="xMidYMid meet">
<metadata>
Created by potrace 1.11, written by Peter Selinger 2001-2013
</metadata>
<g transform="translate(0.000000,1024.000000) scale(0.100000,-0.100000)"
fill="#000000" stroke="none">
<path d="M4795 10228 c-857 -57 -1664 -318 -2400 -776 -589 -367 -1140 -903
-1532 -1492 -196 -294 -393 -673 -515 -990 -460 -1198 -460 -2505 0 -3700 109
-282 280 -622 451 -893 322 -510 762 -984 1265 -1362 556 -416 1248 -735 1931
-889 726 -163 1524 -163 2250 0 391 88 757 220 1140 409 517 256 906 531 1314
930 835 817 1356 1872 1501 3035 112 909 -32 1871 -404 2698 -350 780 -862
1434 -1536 1963 -469 369 -1066 678 -1644 854 -590 178 -1227 253 -1821 213z
m-10 -3118 c268 -38 454 -135 582 -302 212 -276 261 -679 146 -1198 -44 -200
-117 -423 -286 -875 -91 -242 -173 -471 -183 -510 -24 -87 -27 -328 -6 -388
27 -75 103 -91 191 -41 81 46 215 158 367 306 l141 137 13 73 c52 296 265 620
474 723 66 33 89 39 160 43 100 5 145 -8 182 -51 26 -31 26 -34 20 -122 -7
-96 -18 -150 -60 -312 -48 -180 -50 -427 -6 -545 33 -88 80 -142 157 -180 63
-31 75 -33 188 -36 209 -6 365 45 475 157 101 102 142 215 143 386 0 273 -99
420 -597 879 -244 225 -382 446 -431 686 -23 113 -16 337 14 458 67 266 229
466 486 598 158 82 277 108 485 109 237 0 386 -40 546 -147 94 -63 155 -132
205 -233 63 -127 81 -215 82 -385 1 -132 -2 -152 -26 -226 -51 -153 -174 -303
-317 -386 -57 -33 -148 -68 -248 -94 l-32 -9 111 -95 c156 -133 336 -323 404
-425 129 -194 195 -421 195 -675 0 -323 -107 -569 -354 -816 -195 -195 -419
-320 -731 -408 -291 -82 -656 -79 -910 7 -233 80 -426 243 -530 447 -10 19
-18 36 -19 37 -2 2 -56 -50 -122 -115 -212 -211 -464 -354 -709 -403 -33 -6
-114 -11 -180 -11 -334 3 -477 136 -515 482 -12 110 -3 246 26 403 20 109 103
430 154 592 22 72 40 135 40 141 0 7 -114 14 -357 22 -716 24 -753 24 -753 13
0 -6 -7 -57 -15 -114 -41 -270 -63 -544 -75 -922 -7 -245 -11 -287 -29 -339
-23 -66 -72 -135 -123 -173 -52 -40 -277 -143 -348 -160 -171 -41 -286 31
-337 211 -21 73 -28 311 -14 463 22 241 92 595 171 874 16 57 29 104 27 105
-3 3 -182 -18 -382 -45 -218 -29 -325 -35 -355 -19 -63 33 -23 156 83 254 174
161 408 260 825 350 12 2 22 8 22 13 0 20 127 307 206 465 268 536 569 910
915 1138 150 98 276 153 425 182 82 17 291 20 389 6z"/>
<path d="M7298 6586 c-82 -19 -156 -58 -211 -114 l-48 -49 35 -97 c61 -172
163 -321 335 -491 l81 -79 31 29 c56 54 148 185 188 268 51 106 73 192 75 294
1 75 -1 84 -29 124 -74 105 -273 155 -457 115z"/>
<path d="M4374 6401 c-108 -17 -236 -72 -329 -141 -118 -87 -264 -277 -359
-467 -71 -141 -176 -426 -163 -440 7 -7 1161 -21 1169 -14 10 9 75 243 99 359
44 204 34 434 -23 549 -29 59 -104 126 -159 142 -54 16 -169 22 -235 12z"/>
</g>
</svg>
